HIERARCHY
ROOT Hips
{
    OFFSET 0.000000 0.000000 0.000000
    CHANNELS 6 Xposition Yposition Zposition Zrotation Xrotation Yrotation
    JOINT Spine
    {
        OFFSET -0.000000 7.236184 0.000000
        CHANNELS 3 Zrotation Xrotation Yrotation
        JOINT Spine1
        {
            OFFSET -0.000000 20.420147 0.000000
            CHANNELS 3 Zrotation Xrotation Yrotation
            JOINT Neck
            {
                OFFSET -0.000000 20.336288 1.848754
                CHANNELS 3 Zrotation Xrotation Yrotation
                JOINT Head
                {
                    OFFSET -0.000000 12.354461 -1.764923
                    CHANNELS 3 Zrotation Xrotation Yrotation
                    End Site
                    {
                        OFFSET -0.000000 22.061537 0.000000
                    }
                }
            }
            JOINT LeftShoulder
            {
                OFFSET 3.573296 18.396038 -0.314103
                CHANNELS 3 Zrotation Xrotation Yrotation
                JOINT LeftArm
                {
                    OFFSET 10.880760 0.000000 0.000000
                    CHANNELS 3 Zrotation Xrotation Yrotation
                    JOINT LeftForeArm
                    {
                        OFFSET 27.185530 0.000000 0.000000
                        CHANNELS 3 Zrotation Xrotation Yrotation
                        JOINT LeftHand
                        {
                            OFFSET 27.825975 0.000000 0.000000
                            CHANNELS 3 Zrotation Xrotation Yrotation
                            End Site
                            {
                                OFFSET 13.236923 0.000000 0.000000
                            }
                        }
                    }
                }
            }
            JOINT RightShoulder
            {
                OFFSET -3.474926 18.396038 -0.314103
                CHANNELS 3 Zrotation Xrotation Yrotation
                JOINT RightArm
                {
                    OFFSET -10.880760 0.000000 0.000000
                    CHANNELS 3 Zrotation Xrotation Yrotation
                    JOINT RightForeArm
                    {
                        OFFSET -27.185530 0.000000 0.000000
                        CHANNELS 3 Zrotation Xrotation Yrotation
                        JOINT RightHand
                        {
                            OFFSET -27.825975 0.000000 0.000000
                            CHANNELS 3 Zrotation Xrotation Yrotation
                            End Site
                            {
                                OFFSET -13.236923 0.000000 0.000000
                            }
                        }
                    }
                }
            }
        }
    }
    JOINT LeftUpLeg
    {
        OFFSET 8.824615 0.000000 0.000000
        CHANNELS 3 Zrotation Xrotation Yrotation
        JOINT LeftLeg
        {
            OFFSET -0.000000 -35.111282 0.000000
            CHANNELS 3 Zrotation Xrotation Yrotation
            JOINT LeftFoot
            {
                OFFSET -0.000000 -42.324711 0.000000
                CHANNELS 3 Zrotation Xrotation Yrotation
                JOINT LeftToeBase
                {
                    OFFSET -0.000000 -5.735999 13.236923
                    CHANNELS 3 Zrotation Xrotation Yrotation
                    End Site
                    {
                        OFFSET -0.000000 0.000000 3.529846
                    }
                }
            }
        }
    }
    JOINT RightUpLeg
    {
        OFFSET -8.824615 0.000000 0.000000
        CHANNELS 3 Zrotation Xrotation Yrotation
        JOINT RightLeg
        {
            OFFSET -0.000000 -35.111282 0.000000
            CHANNELS 3 Zrotation Xrotation Yrotation
            JOINT RightFoot
            {
                OFFSET -0.000000 -42.324711 0.000000
                CHANNELS 3 Zrotation Xrotation Yrotation
                JOINT RightToeBase
                {
                    OFFSET -0.000000 -5.735999 13.236923
                    CHANNELS 3 Zrotation Xrotation Yrotation
                    End Site
                    {
                        OFFSET -0.000000 0.000000 3.529846
                    }
                }
            }
        }
    }
}
MOTION
Frames:    10
Frame Time:    0.008333
7.095530    83.625984    104.417824    -0.664886    -9.276575    -176.033478    -4.046944    -11.678695    -0.258598    1.335061    7.963479    0.062822    2.944127    4.968347    -2.583293    7.378377    -17.099924    -0.873727    0.485337    16.269979    -4.768058    -37.133217    41.545391    -46.661247    2.387423    -3.846566    -14.428643    17.183685    -3.376009    1.120111    4.207680    17.729753    -1.523399    37.148224    42.514935    42.190758    -10.856504    -7.178144    27.781698    -18.860498    -4.509072    0.061164    9.828052    -13.576917    -0.592313    1.062893    11.652529    4.405247    -13.077237    -4.980845    -13.444516    -0.179066    -0.215923    0.198565    -12.262846    -7.115607    -1.780275    1.543894    6.026582    0.015089    9.442831    -5.273702    -11.332156    -1.182497    0.348747    1.278345    
7.084589    83.630043    104.392578    -0.648441    -9.313879    -175.972366    -4.047767    -11.683558    -0.247912    1.409869    7.918443    0.069097    2.866446    4.956911    -2.629568    7.369794    -17.171925    -0.912102    0.447713    16.282625    -4.774334    -37.138935    41.437008    -46.802124    2.400836    -3.878592    -14.409368    17.166111    -3.407689    1.115194    4.164967    17.765013    -1.552639    37.233974    42.372540    42.209503    -10.828631    -7.189241    27.719292    -18.985231    -4.545733    0.134603    9.822769    -13.645218    -0.628063    1.063490    11.705196    4.409523    -13.110683    -4.997252    -13.455427    -0.156548    -0.179349    0.173584    -12.257101    -7.127371    -1.791983    1.540684    6.141438    1.131940    9.336702    -5.593709    -12.473758    -1.187369    0.364262    1.283586    
7.073536    83.634132    104.367783    -0.632207    -9.350691    -175.911514    -4.046318    -11.690062    -0.236903    1.479665    7.877463    0.075965    2.791751    4.944381    -2.675138    7.361670    -17.242983    -0.950013    0.412036    16.293118    -4.781017    -37.143471    41.328720    -46.944172    2.411505    -3.908678    -14.388170    17.143887    -3.437788    1.110710    4.125755    17.797514    -1.579908    37.316994    42.229996    42.227482    -10.800246    -7.198982    27.655256    -19.108665    -4.581405    0.207863    9.816930    -13.713479    -0.662631    1.064694    11.758131    4.413632    -13.143858    -5.013163    -13.467483    -0.134160    -0.143851    0.148750    -12.251727    -7.138817    -1.802282    1.536223    6.247362    2.146531    9.233099    -5.886351    -13.517443    -1.191992    0.379443    1.288557    
7.062231    83.638260    104.343704    -0.616542    -9.386574    -175.850693    -4.041408    -11.699043    -0.225240    1.541589    7.843246    0.083541    2.721879    4.930108    -2.719614    7.354328    -17.312969    -0.987138    0.379598    16.300064    -4.788296    -37.144730    41.220139    -47.089863    2.417195    -3.935225    -14.363451    17.113096    -3.465042    1.106844    4.091630    17.825298    -1.603693    37.396187    42.086250    42.244080    -10.770542    -7.205832    27.588326    -19.230658    -4.614952    0.281309    9.809895    -13.781765    -0.695180    1.067033    11.811736    4.417244    -13.176315    -5.028327    -13.481506    -0.111874    -0.109476    0.124033    -12.247247    -7.149205    -1.809965    1.531340    6.340871    3.025378    9.136499    -6.143615    -14.431542    -1.196309    0.394436    1.293197    
7.050652    83.642387    104.320694    -0.602086    -9.420893    -175.790115    -4.032848    -11.710752    -0.212978    1.593563    7.817583    0.091803    2.658649    4.913925    -2.762371    7.348058    -17.380928    -1.023033    0.351804    16.302124    -4.796941    -37.141972    41.111828    -47.238903    2.416241    -3.956875    -14.334676    17.070185    -3.488366    1.103584    4.063633    17.847355    -1.623006    37.470772    41.939907    42.259048    -10.738281    -7.207769    27.518236    -19.349117    -4.644722    0.355410    9.800923    -13.849498    -0.725171    1.070796    11.865775    4.420234    -13.207451    -5.042370    -13.498076    -0.089850    -0.077300    0.099609    -12.244292    -7.158014    -1.815127    1.526696    6.420701    3.754828    9.049994    -6.362325    -15.202107    -1.200231    0.408987    1.297411    
7.038663    83.646484    104.298737    -0.589111    -9.453363    -175.729187    -4.021021    -11.724697    -0.200420    1.635920    7.800395    0.101066    2.601723    4.895515    -2.803643    7.343441    -17.446409    -1.057774    0.328542    16.299217    -4.807521    -37.133350    41.002590    -47.393513    2.407212    -3.973178    -14.301760    17.011471    -3.507483    1.100850    4.041288    17.863573    -1.637717    37.537098    41.792454    42.274635    -10.704639    -7.206635    27.444601    -19.462793    -4.672260    0.429887    9.789544    -13.916838    -0.752870    1.076066    11.920771    4.422316    -13.237604    -5.055323    -13.517446    -0.068088    -0.047440    0.075479    -12.243437    -7.164583    -1.817643    1.523070    6.487770    4.348582    8.973532    -6.546285    -15.843077    -1.203816    0.423381    1.301260    
7.026306    83.650497    104.277863    -0.577682    -9.483682    -175.667740    -4.006410    -11.740391    -0.187389    1.669111    7.791424    0.110940    2.551203    4.875476    -2.843387    7.340949    -17.509335    -1.091124    0.310259    16.290874    -4.821067    -37.118561    40.892357    -47.553169    2.389232    -3.984037    -14.265496    16.933666    -3.522501    1.098460    4.023995    17.874435    -1.647944    37.595169    41.641308    42.291691    -10.668265    -7.201070    27.367683    -19.569447    -4.696618    0.505627    9.775820    -13.983482    -0.778762    1.082534    11.976573    4.424119    -13.266175    -5.067115    -13.539884    -0.046567    -0.019999    0.051620    -12.244678    -7.168459    -1.817903    1.520586    6.543136    4.820754    8.906904    -6.699177    -16.367712    -1.207099    0.437037    1.304785    
7.013737    83.654282    104.258095    -0.567512    -9.511556    -175.605621    -3.989605    -11.757245    -0.174374    1.694215    7.790051    0.121397    2.506777    4.853476    -2.881494    7.340985    -17.568298    -1.122995    0.296708    16.277372    -4.838077    -37.096310    40.780769    -47.717937    2.361907    -3.990010    -14.227209    16.833387    -3.533967    1.096364    4.010647    17.879684    -1.653721    37.644913    41.486038    42.310753    -10.628928    -7.191132    27.288343    -19.666651    -4.717789    0.582528    9.760448    -14.049168    -0.803819    1.089563    12.033162    4.426157    -13.293381    -5.077881    -13.565090    -0.025550    0.005209    0.028321    -12.247481    -7.169378    -1.816748    1.519082    6.588234    5.188798    8.849115    -6.825319    -16.792217    -1.210009    0.450149    1.307907    
7.001156    83.657715    104.239311    -0.558021    -9.536667    -175.542465    -3.971115    -11.774610    -0.161172    1.712813    7.795605    0.131680    2.468167    4.830060    -2.917991    7.343428    -17.623697    -1.153298    0.287979    16.258286    -4.859163    -37.066948    40.667316    -47.887241    2.325240    -3.991699    -14.188380    16.707794    -3.542569    1.094308    4.000149    17.880024    -1.655484    37.684105    41.326130    42.334278    -10.586568    -7.177761    27.207403    -19.752510    -4.736543    0.660355    9.744426    -14.113764    -0.829137    1.096434    12.090840    4.428713    -13.319097    -5.088095    -13.592432    -0.004831    0.027894    0.005355    -12.250931    -7.167015    -1.814877    1.518104    6.624831    5.471413    8.798849    -6.929496    -17.134283    -1.212610    0.462850    1.310696    
6.988739    83.660652    104.221329    -0.548430    -9.558702    -175.477661    -3.951261    -11.791479    -0.148542    1.726480    7.807125    0.142011    2.434710    4.805110    -2.953015    7.348477    -17.675264    -1.182114    0.283965    16.234116    -4.884880    -37.029396    40.550323    -48.062099    2.279023    -3.989949    -14.150532    16.553625    -3.549184    1.091748    3.991162    17.875084    -1.653297    37.712818    41.160255    42.363281    -10.540966    -7.161100    27.125025    -19.825817    -4.753178    0.739580    9.728943    -14.177501    -0.855451    1.102459    12.150404    4.431997    -13.343754    -5.098268    -13.621733    0.015648    0.048861    -0.017343    -12.253860    -7.160919    -1.813357    1.517012    6.654465    5.685715    8.754726    -7.016113    -17.409872    -1.214671    0.474355    1.312903    
